<?xml version="1.0" encoding="utf-8"?>
<!-- Generator: Adobe Illustrator 16.0.0, SVG Export Plug-In . SVG Version: 6.00 Build 0)  -->
<!DOCTYPE svg PUBLIC "-//W3C//DTD SVG 1.1//EN" "http://www.w3.org/Graphics/SVG/1.1/DTD/svg11.dtd">
<svg version="1.1" id="Layer_1" xmlns="http://www.w3.org/2000/svg" xmlns:xlink="http://www.w3.org/1999/xlink" x="0px" y="0px"
	 width="80px" height="79.5px" viewBox="0 0 80 79.5" enable-background="new 0 0 80 79.5" xml:space="preserve">
<path fill="#FFFFFF" d="M38.755,76.494c-0.01,0-0.019,0-0.026,0C17.914,76.484,0.988,59.539,1,38.725
	C1.005,28.64,4.938,19.162,12.071,12.037c7.13-7.122,16.604-11.043,26.681-11.043c0.007,0,0.013,0,0.02,0
	c5.32,0.003,10.485,1.103,15.345,3.268c1.729,0.771,2.51,2.8,1.735,4.531c-0.767,1.731-2.791,2.507-4.53,1.739
	c-3.975-1.771-8.201-2.671-12.553-2.674c-0.007,0-0.012,0-0.017,0c-17.025,0-30.88,13.844-30.888,30.87
	C7.855,55.759,21.701,69.62,38.731,69.631c0.007,0,0.016,0,0.023,0c8.243,0,15.991-3.207,21.822-9.032
	c5.839-5.831,9.056-13.587,9.06-21.836v-3.155c0-1.896,1.534-3.432,3.432-3.432c1.896,0,3.432,1.536,3.432,3.432v3.157
	c-0.007,10.087-3.938,19.565-11.069,26.69C58.302,72.573,48.828,76.494,38.755,76.494z"/>
<path fill="#FFFFFF" d="M38.75,49.094c-0.91,0-1.783-0.362-2.427-1.006L26.028,37.792c-1.341-1.34-1.341-3.512,0-4.853
	s3.512-1.341,4.853,0l7.867,7.866L70.642,8.885c1.341-1.344,3.513-1.34,4.853-0.003c1.341,1.34,1.341,3.512,0,4.853L41.177,48.088
	C40.533,48.731,39.661,49.094,38.75,49.094z"/>
</svg>
