<svg xmlns="http://www.w3.org/2000/svg" xmlns:xlink="http://www.w3.org/1999/xlink" width="35" height="32" viewBox="0 0 35 32">
  <defs>
    <clipPath id="clip-path">
      <rect id="Rectángulo_1268" data-name="Rectángulo 1268" width="35" height="32" transform="translate(930 1652.409)" fill="none" stroke="#707070" stroke-width="1"/>
    </clipPath>
  </defs>
  <g id="Enmascarar_grupo_11" data-name="Enmascarar grupo 11" transform="translate(-930 -1652.409)" clip-path="url(#clip-path)">
    <g id="mano_autoia" data-name="mano autoia" transform="translate(930.001 1656.658)">
      <g id="kckp43_00000015319751758374094860000007808707991560313002_" transform="translate(0 11.611)">
        <g id="Grupo_2597" data-name="Grupo 2597">
          <path id="Trazado_1082" data-name="Trazado 1082" d="M28.033,28.167c.2-.136.4-.265.6-.4,1.113-.757,2.227-1.522,3.355-2.272a3.2,3.2,0,0,1,4.385.848,1.447,1.447,0,0,1,.227.409.7.7,0,0,1-.31.806c-.515.4-1.038.806-1.553,1.2L28.957,33.22a11.78,11.78,0,0,1-1.091.765,4.515,4.515,0,0,1-1.567.462c-1.257.227-2.507.462-3.756.681-.576.106-1.159.227-1.742.281a3.548,3.548,0,0,1-2.287-.576l-2.338-1.477a1.8,1.8,0,0,0-1.29-.265.8.8,0,0,0-.371.174q-1.613,1.352-3.241,2.689a.721.721,0,0,1-.909.038.7.7,0,0,1-.015-1.105c.614-.515,1.234-1.022,1.848-1.538.477-.4.968-.788,1.439-1.2a2,2,0,0,1,1.06-.462,3.167,3.167,0,0,1,2.258.484c.765.493,1.538.968,2.3,1.451a2.45,2.45,0,0,0,1.825.323c1.143-.212,2.295-.417,3.446-.629.757-.136,1.515-.265,2.272-.439a1.935,1.935,0,0,0,.712-.341q3.646-2.795,7.27-5.612c.045-.031.081-.069.152-.121a3.5,3.5,0,0,0-.409-.25,1.722,1.722,0,0,0-1.757.121C31.125,27.783,29.5,28.9,27.86,30.009a.5.5,0,0,0-.106.114,2.534,2.534,0,0,1-2.016,1.151q-2.533.181-5.067.371a.751.751,0,0,1-.81-.386.705.705,0,0,1,.583-1.022c1.29-.091,2.567-.181,3.855-.281.477-.038.962-.069,1.439-.106a1.013,1.013,0,0,0,.81-1.553,1.029,1.029,0,0,0-.893-.477c-.6.023-1.189.076-1.787.114-.909.069-1.81.136-2.719.2a1.8,1.8,0,0,1-1.613-.719,4.112,4.112,0,0,0-4.862-1.151,12.7,12.7,0,0,0-1.121.651c-1.712,1.022-3.431,2.045-5.142,3.064L2.269,33.64a.71.71,0,0,1-1.091-.424.7.7,0,0,1,.356-.78c.795-.469,1.583-.947,2.378-1.417Q8.9,28.044,13.9,25.067a4.34,4.34,0,0,1,1.8-.545,5.446,5.446,0,0,1,4.923,2,.484.484,0,0,0,.439.2c.81-.06,1.629-.121,2.439-.174.645-.045,1.28-.114,1.924-.136a2.487,2.487,0,0,1,2.419,1.3C27.913,27.857,27.966,28.008,28.033,28.167Z" transform="translate(-1.159 -24.48)" fill="#fff"/>
        </g>
      </g>
      <g id="Grupo_2598" data-name="Grupo 2598" transform="translate(4.414 0)">
        <path id="Trazado_1083" data-name="Trazado 1083" d="M12.434,21.711a.833.833,0,1,0-.834-.833.833.833,0,0,0,.834.833Z" transform="translate(-7.595 -12.01)" fill="#fff"/>
        <path id="Trazado_1084" data-name="Trazado 1084" d="M32.254,17.1a3.207,3.207,0,0,0-3.181,2.8H17.786v1.167H29.127A3.211,3.211,0,1,0,32.254,17.1Zm0,5.248a2.026,2.026,0,1,0,0-.007Z" transform="translate(-8.794 -11.439)" fill="#fff"/>
        <path id="Trazado_1085" data-name="Trazado 1085" d="M35.531,20.054a.833.833,0,1,0,.833.833A.833.833,0,0,0,35.531,20.054Z" transform="translate(-12.07 -12.011)" fill="#fff"/>
        <path id="Trazado_1086" data-name="Trazado 1086" d="M35.191,12.532l-3.453.015-4.2-2.378-7.256-.091c-1.841.136-6.308,3.188-6.308,3.188a12.387,12.387,0,0,0-7.337,1.984V19.7H8.351a3.209,3.209,0,1,0-.06-1.159h-.5V15.933A10.244,10.244,0,0,1,14.705,14.3,17.052,17.052,0,0,1,20.34,11.01H23v2.741H17.227v.909h6.68v-.909H23.9V11.01h3.2s4,2.741,4.779,2.787,2.552-.031,2.552-.031.962,3.877-.235,5.142l.9.621C35.1,19.529,37.091,16.925,35.191,12.532Zm-23.72,4.385a2.029,2.029,0,1,1-2.029,2.029,2.029,2.029,0,0,1,2.029-2.029Z" transform="translate(-6.633 -10.079)" fill="#fff"/>
      </g>
    </g>
  </g>
</svg>
