<svg xmlns="http://www.w3.org/2000/svg" width="32" height="32" viewBox="0 0 32 32">
  <g id="icons8-facebook" transform="translate(-1090 -511)">
    <path id="Shape" d="M1118.444,543h-24.889a3.559,3.559,0,0,1-3.556-3.555V514.555a3.56,3.56,0,0,1,3.556-3.555h24.889a3.56,3.56,0,0,1,3.556,3.555v24.889A3.559,3.559,0,0,1,1118.444,543Zm-8.153-10.6v7.049h8.157l0-24.889h-24.889v24.889h11.77V532.4h-4.166v-4.844h4.166v-3.567a6.475,6.475,0,0,1,1.724-4.74,6.214,6.214,0,0,1,4.488-1.642h.1a35.785,35.785,0,0,1,3.617.185v4.323h-2.538c-1.991,0-2.4.938-2.4,2.347v3.087h4.8l-.625,4.844Z" fill="#fff"/>
  </g>
</svg>
