<svg id="Grupo_2598" data-name="Grupo 2598" xmlns="http://www.w3.org/2000/svg" width="29.379" height="12.083" viewBox="0 0 29.379 12.083">
  <path id="Trazado_1083" data-name="Trazado 1083" d="M12.434,21.711a.833.833,0,1,0-.834-.833.833.833,0,0,0,.834.833Z" transform="translate(-7.595 -12.01)" fill="#fff"/>
  <path id="Trazado_1084" data-name="Trazado 1084" d="M32.254,17.1a3.207,3.207,0,0,0-3.181,2.8H17.786v1.167H29.127A3.211,3.211,0,1,0,32.254,17.1Zm0,5.248a2.026,2.026,0,1,0,0-.007Z" transform="translate(-8.794 -11.439)" fill="#fff"/>
  <path id="Trazado_1085" data-name="Trazado 1085" d="M35.531,20.054a.833.833,0,1,0,.833.833A.833.833,0,0,0,35.531,20.054Z" transform="translate(-12.07 -12.011)" fill="#fff"/>
  <path id="Trazado_1086" data-name="Trazado 1086" d="M35.191,12.532l-3.453.015-4.2-2.378-7.256-.091c-1.841.136-6.308,3.188-6.308,3.188a12.387,12.387,0,0,0-7.337,1.984V19.7H8.351a3.209,3.209,0,1,0-.06-1.159h-.5V15.933A10.244,10.244,0,0,1,14.705,14.3,17.052,17.052,0,0,1,20.34,11.01H23v2.741H17.227v.909h6.68v-.909H23.9V11.01h3.2s4,2.741,4.779,2.787,2.552-.031,2.552-.031.962,3.877-.235,5.142l.9.621C35.1,19.529,37.091,16.925,35.191,12.532Zm-23.72,4.385a2.029,2.029,0,1,1-2.029,2.029,2.029,2.029,0,0,1,2.029-2.029Z" transform="translate(-6.633 -10.079)" fill="#fff"/>
</svg>
