<svg xmlns="http://www.w3.org/2000/svg" xmlns:xlink="http://www.w3.org/1999/xlink" width="29" height="26" viewBox="0 0 29 26">
  <defs>
    <clipPath id="clip-path">
      <rect id="Rectángulo_1266" data-name="Rectángulo 1266" width="29" height="26" transform="translate(930 1905)" fill="#fff" stroke="#707070" stroke-width="1"/>
    </clipPath>
  </defs>
  <g id="Enmascarar_grupo_17" data-name="Enmascarar grupo 17" transform="translate(-930 -1905)" clip-path="url(#clip-path)">
    <path id="llave_destornillador" data-name="llave destornillador" d="M30.836,8.692l2.46,2.452a.608.608,0,0,1,.014.864l-3.9,4.825a.611.611,0,0,1-.864.094c-.029-.014-.043-.043-.066-.066l-.958-.958L22.7,20.729l7.749,7.77a3.686,3.686,0,1,1-5.224,5.2l-4.76-4.742L15.4,34.01a2.7,2.7,0,0,1-1.916.8v.014a2.675,2.675,0,0,1-1.93-.812L7.966,30.423a2.673,2.673,0,0,1-.8-1.916v-.043a2.669,2.669,0,0,1,.8-1.886l5.057-5.057-.479-.486A6.242,6.242,0,0,1,7.1,19.285a7.463,7.463,0,0,1-.789-.943L6.3,18.328a.678.678,0,0,1-.109-.348.624.624,0,0,1,.624-.624H10.8l.724-1.262.733-1.27-.733-1.277-.724-1.27H6.82a.526.526,0,0,1-.348-.109.62.62,0,0,1-.16-.849c.109-.145.211-.3.348-.472v-.007l.014-.014a4.3,4.3,0,0,1,.428-.457,6.315,6.315,0,0,1,8.91,0,6.407,6.407,0,0,1,1.6,2.663,6.65,6.65,0,0,1,.174,2.8l2.039,2.039,1.422,1.418,4.832-4.811-.972-.987a.626.626,0,0,1,0-.878l.043-.036h0l4.883-3.933a.58.58,0,0,1,.805.043ZM25.859,25.641h0a1.808,1.808,0,0,1-.443.7l-.8.812a2.006,2.006,0,0,1-1.4.566,1.908,1.908,0,0,1-1.154-.362l-.724.724L26.1,32.844a2.458,2.458,0,1,0,3.475-3.475l-3.715-3.729Zm-11.95-5h0l.718-.718a2.014,2.014,0,0,1-.362-1.161,1.944,1.944,0,0,1,.58-1.393l.8-.805a2,2,0,0,1,.864-.493.849.849,0,0,1,.029-.232,5,5,0,0,0-.109-2.467,5.065,5.065,0,0,0-8.243-2.329h2.982a.631.631,0,0,1,.537.312l.907,1.579.914,1.574a.592.592,0,0,1,0,.609l-.936,1.574-.907,1.579a.633.633,0,0,1-.537.3H8.17a4.844,4.844,0,0,0,1.952,1.1,5.053,5.053,0,0,0,2.5.094.642.642,0,0,1,.587.167l.7.7Zm12.378,8.918h0a2,2,0,0,0,0,2.823,2.023,2.023,0,0,0,2.829,0,2,2,0,1,0-2.829-2.823Zm.871.864h0a.764.764,0,1,1,.007,1.081.764.764,0,0,1-.007-1.081ZM17.051,21.738h0a.622.622,0,0,1,.864,0,.6.6,0,0,1,0,.871L11.429,29.1a.608.608,0,0,1-.864,0,.592.592,0,0,1,0-.871l6.486-6.486Zm2.321,2.329h0a.626.626,0,0,1,.878,0,.64.64,0,0,1,0,.878l-6.486,6.486a.621.621,0,1,1-.878-.878Zm4.534.88h0l-6.864-6.859-.689.689c.145.145.29.3.443.443a1.036,1.036,0,0,1-.009,1.451q-3.667,3.679-7.357,7.357a.7.7,0,0,0-.2.464v.014a.67.67,0,0,0,.2.457l3.6,3.585a.678.678,0,0,0,.464.2.737.737,0,0,0,.464-.2c2.445-2.438,4.9-4.9,7.357-7.35a1.016,1.016,0,0,1,1.451,0c.145.145.3.276.443.428Zm8.126-13.316h0L30.364,9.948,26.454,13.09l2.439,2.45,3.142-3.911Z" transform="translate(924.637 1896.494)" fill="#fff"/>
  </g>
</svg>
