<svg xmlns="http://www.w3.org/2000/svg" xmlns:xlink="http://www.w3.org/1999/xlink" width="32" height="29" viewBox="0 0 32 29">
  <defs>
    <clipPath id="clip-path">
      <rect id="Rectángulo_1257" data-name="Rectángulo 1257" width="32" height="29" transform="translate(438 1652.78)" fill="#fff"/>
    </clipPath>
  </defs>
  <g id="Enmascarar_grupo_12" data-name="Enmascarar grupo 12" transform="translate(-438 -1652.779)" clip-path="url(#clip-path)">
    <path id="pin_mapa_1" data-name="pin mapa 1" d="M22.072,11.548a3.265,3.265,0,1,1-3.265,3.265,3.265,3.265,0,0,1,3.265-3.265Zm-7.037,6.385h0a7.61,7.61,0,0,1-.653-3.192A7.911,7.911,0,0,1,16.63,9.227a7.782,7.782,0,0,1,5.514-2.249,7.911,7.911,0,0,1,5.514,2.249,7.782,7.782,0,0,1,2.249,5.514,8.107,8.107,0,0,1-.653,3.192h2.682a.688.688,0,0,1,.653.58l2.394,12.7a.6.6,0,0,1-.508.725H9.883a.572.572,0,0,1-.58-.58v-.147l2.394-12.7a.615.615,0,0,1,.58-.508l2.757-.073Zm.653,1.234h-2.9L10.608,30.63h23L31.431,19.093h-2.9l-.147.22a8.107,8.107,0,0,1-3.625,2.755l-1.886,2.467a1.035,1.035,0,0,1-1.451.147c-.073-.073-.147-.147-.22-.147l-1.741-2.394a7.984,7.984,0,0,1-3.627-2.757l-.147-.22ZM26.135,10.75h0a5.732,5.732,0,0,0-9.795,4.063,5.963,5.963,0,0,0,1.091,3.41,6.549,6.549,0,0,0,2.9,2.1.839.839,0,0,1,.508.366l1.234,1.669,1.234-1.669a1.3,1.3,0,0,1,.508-.366,5.609,5.609,0,0,0,2.9-2.1,5.963,5.963,0,0,0,1.089-3.41,5.468,5.468,0,0,0-1.669-4.063Zm-4.063,2.031h0a2.028,2.028,0,0,0-2.031,2.031,2.076,2.076,0,0,0,2.031,2.031,2.032,2.032,0,1,0,0-4.063Z" transform="translate(431.628 1647.354)" fill="#fff"/>
  </g>
</svg>
