<svg xmlns="http://www.w3.org/2000/svg" width="37.568" height="37.568" viewBox="0 0 37.568 37.568">
  <g id="Icon_ionic-ios-arrow-dropleft" data-name="Icon ionic-ios-arrow-dropleft" transform="translate(40.943 40.943) rotate(180)">
    <path id="Trazado_65" data-name="Trazado 65" d="M23.751,10.491a1.75,1.75,0,0,0-2.465,0L12.67,19.133a1.741,1.741,0,0,0-.054,2.4l8.489,8.516a1.74,1.74,0,1,0,2.465-2.456L16.364,20.28l7.4-7.324A1.741,1.741,0,0,0,23.751,10.491Z" transform="translate(2.499 1.879)" fill="#fb5f00"/>
    <path id="Trazado_66" data-name="Trazado 66" d="M22.159,3.375A18.784,18.784,0,1,0,40.943,22.159,18.781,18.781,0,0,0,22.159,3.375ZM33.393,33.393A15.888,15.888,0,1,1,10.925,10.925,15.888,15.888,0,1,1,33.393,33.393Z" fill="#fb5f00"/>
  </g>
</svg>
