<svg xmlns="http://www.w3.org/2000/svg" xmlns:xlink="http://www.w3.org/1999/xlink" width="91.999" height="83.463" viewBox="0 0 91.999 83.463">
  <defs>
    <linearGradient id="linear-gradient" x1="0.5" y1="1" x2="0.5" gradientUnits="objectBoundingBox">
      <stop offset="0" stop-color="#fff"/>
      <stop offset="1" stop-color="#fff"/>
    </linearGradient>
  </defs>
  <g id="Grupo_84" data-name="Grupo 84" transform="translate(-626.879 -763.452)">
    <rect id="Rectángulo_15" data-name="Rectángulo 15" width="91.999" height="83.463" rx="5" transform="translate(626.879 763.452)" fill="#fb5f00"/>
    <g id="Grupo_78" data-name="Grupo 78" transform="translate(653.923 791.924)">
      <path id="Trazado_9" data-name="Trazado 9" d="M426.939,325.471c-.177,0-.318-.035-.459-.035h-5.833c-.353,0-.495.106-.566.459-.212.884-.46,1.8-.742,2.863-.141-.318-.212-.495-.283-.672-1.485-4.631-2.969-9.226-4.419-13.857a.573.573,0,0,0-.672-.495q-1.856.053-3.712,0a.667.667,0,0,0-.742.53c-1.449,4.56-2.9,9.12-4.348,13.645a1.378,1.378,0,0,1-.353.671c-.106-.424-.247-.813-.353-1.237-1.167-4.348-2.3-8.66-3.429-13.008-.141-.53-.354-.636-.848-.636-1.8.035-3.606,0-5.408,0H394.1c.071.354.106.636.177.919,2.545,9.474,5.055,18.982,7.6,28.456a.647.647,0,0,0,.742.566q1.909-.053,3.818,0c.424,0,.566-.141.707-.53,1.555-4.913,3.111-9.862,4.7-14.776a3.153,3.153,0,0,1,.247-.636l.247.742c1.555,4.878,3.146,9.721,4.666,14.6a.721.721,0,0,0,.813.6q1.909-.053,3.818,0a.515.515,0,0,0,.6-.424c1.52-5.727,3.075-11.488,4.6-17.215Z" transform="translate(-394.1 -313.7)" fill="#fff"/>
      <path id="Trazado_10" data-name="Trazado 10" d="M480.442,313.735c-.177,0-.353-.035-.495-.035h-5.691c-.283,0-.495.035-.566.389-.495,1.944-1.025,3.888-1.555,5.868a.688.688,0,0,0-.035.283c.212,0,.354.035.53.035h5.585c.353,0,.566-.071.672-.495.495-1.874.99-3.747,1.52-5.585A1.873,1.873,0,0,0,480.442,313.735Z" transform="translate(-444.528 -313.7)"/>
    </g>
    <g id="Grupo_79" data-name="Grupo 79" transform="translate(639.601 772.093)">
      <path id="Trazado_16" data-name="Trazado 16" d="M384.269,257.6a33.369,33.369,0,1,0,33.369,33.369A33.385,33.385,0,0,0,384.269,257.6Zm0,58.466A25.062,25.062,0,1,1,409.331,291,25.065,25.065,0,0,1,384.269,316.066Z" transform="translate(-350.9 -257.6)" fill="url(#linear-gradient)"/>
    </g>
  </g>
</svg>
