<svg id="Grupo_119" data-name="Grupo 119" xmlns="http://www.w3.org/2000/svg" xmlns:xlink="http://www.w3.org/1999/xlink" width="287.654" height="61.645" viewBox="0 0 287.654 61.645">
  <defs>
    <clipPath id="clip-path">
      <rect id="Rectángulo_32" data-name="Rectángulo 32" width="287.654" height="61.645" fill="none"/>
    </clipPath>
  </defs>
  <g id="Grupo_118" data-name="Grupo 118" clip-path="url(#clip-path)">
    <path id="Trazado_87" data-name="Trazado 87" d="M258.445,41.313a7.022,7.022,0,0,0-.751-.065h-9.8a.841.841,0,0,0-.98.751c-.359,1.5-.784,3-1.273,4.8-.229-.555-.359-.849-.457-1.143-2.481-7.771-5-15.542-7.444-23.345-.2-.653-.49-.816-1.143-.816-2.09.033-4.147.033-6.236,0a1.036,1.036,0,0,0-1.241.882c-2.416,7.673-4.9,15.346-7.346,23.019a2.942,2.942,0,0,1-.588,1.143c-.2-.686-.392-1.4-.588-2.09-1.926-7.281-3.885-14.595-5.779-21.876-.229-.882-.588-1.11-1.437-1.077-3.037.065-6.04.033-9.077.033H203.2c.131.588.2,1.045.327,1.535q6.416,23.949,12.766,47.931a1.054,1.054,0,0,0,1.273.947c2.122-.065,4.277-.065,6.4,0a1.035,1.035,0,0,0,1.175-.882q3.918-12.44,7.9-24.88c.1-.261.2-.555.392-1.077.2.555.327.882.424,1.241q3.967,12.293,7.9,24.586c.229.718.522,1.045,1.339,1.012,2.122-.065,4.277-.033,6.4,0,.555,0,.816-.1.98-.718l7.738-28.994a4.164,4.164,0,0,0,.229-.914" transform="translate(-136.854 -14.474)" fill="#fff"/>
    <path id="Trazado_88" data-name="Trazado 88" d="M788.574,53.534c3.69,6.138,7.314,12.244,11.069,18.48H798.5c-3.559,0-7.118-.033-10.677.033a1.537,1.537,0,0,1-1.535-.849c-2.775-4.669-5.583-9.305-8.359-13.942a1.294,1.294,0,0,0-1.339-.751c-1.731.033-3.494,0-5.322,0V71.981H760.3V45.534h1.045c5.844-.065,11.689-.131,17.534-.131,5.91,0,7.444-6.269,5.257-9.8a5.067,5.067,0,0,0-4.081-2.645c-1.7-.1-3.363-.2-5.061-.2-4.6-.033-9.208-.033-13.811-.033-.718,0-.979-.2-.979-.947.033-3.1.033-6.2,0-9.338,0-.457,0-.816.653-.784,6.334.033,12.636-.131,18.97.163a16.221,16.221,0,0,1,13.289,7.151,17.959,17.959,0,0,1-3.918,24.129,1.62,1.62,0,0,0-.62.424" transform="translate(-511.989 -14.581)" fill="#fc8500"/>
    <path id="Trazado_89" data-name="Trazado 89" d="M647.868,71.839h-1.012c-3.2,0-6.4-.033-9.6.033a1.332,1.332,0,0,1-1.469-1.012q-5.632-15.036-11.33-30.071c-.1-.261-.229-.522-.424-1.012-.229.522-.392.849-.522,1.208-3.787,9.991-7.608,19.982-11.362,29.973a1.171,1.171,0,0,1-1.339.914c-3.232-.033-6.465-.033-9.7-.033H600.1c.1-.327.131-.588.229-.816q9.207-24.292,18.448-48.65a1.271,1.271,0,0,1,1.469-.98c2.579.065,5.159.033,7.738,0a1.03,1.03,0,0,1,1.11.751q9.257,24.439,18.546,48.878a6.724,6.724,0,0,1,.229.816" transform="translate(-404.162 -14.407)" fill="#fc8500"/>
    <path id="Trazado_90" data-name="Trazado 90" d="M416.205,71.88H405.3V21.6a6.875,6.875,0,0,1,.816-.065c3.1,0,6.171.033,9.273-.033.718,0,.882.229.882.914-.033,16.195,0,32.39,0,48.584a6.51,6.51,0,0,0-.065.882" transform="translate(-272.966 -14.48)" fill="#fff"/>
    <path id="Trazado_91" data-name="Trazado 91" d="M493.859,41.313c-.784-1.077-1.5-2.057-2.253-3.037a13.851,13.851,0,0,0-5.91-4.865c-5.551-2.057-13.354-.588-15.8,8-.229.751-.49,1.045-1.306,1.012-3.037-.065-6.04-.033-9.077-.033H458.4a24.97,24.97,0,0,1,3.526-10.154,20.251,20.251,0,0,1,11.591-9.305c12.44-3.755,22.137.816,28.994,11.689-2.873,2.22-5.747,4.441-8.652,6.693" transform="translate(-308.729 -14.572)" fill="#fc8500"/>
    <path id="Trazado_92" data-name="Trazado 92" d="M493.826,113.41c2.939,2.253,5.779,4.441,8.783,6.726-1.469,1.828-2.808,3.624-4.277,5.322-8.816,10.252-24.031,9.305-31.867,2.416a24.931,24.931,0,0,1-8.032-14.856,1.339,1.339,0,0,1-.033-.359,1.758,1.758,0,0,1,.033-.359H469.5c.424,1.077.784,2.22,1.241,3.3,3.461,7.575,13.093,8.261,17.991,3.82a45.665,45.665,0,0,0,4.212-4.8,9.671,9.671,0,0,0,.882-1.208" transform="translate(-308.729 -75.633)" fill="#fc8500"/>
    <path id="Trazado_93" data-name="Trazado 93" d="M359.305,21.565c-.327-.033-.588-.065-.816-.065h-9.6c-.49,0-.816.065-.979.653-.849,3.3-1.763,6.563-2.645,9.861-.033.131-.033.294-.065.49.327.033.62.065.914.065h9.436c.62,0,.947-.131,1.11-.816.816-3.134,1.7-6.269,2.514-9.436.065-.2.065-.457.131-.751" transform="translate(-232.489 -14.48)" fill="#fc8500"/>
    <path id="Trazado_94" data-name="Trazado 94" d="M30.822,0A30.822,30.822,0,1,0,61.645,30.822,30.837,30.837,0,0,0,30.822,0m0,54A23.149,23.149,0,1,1,53.972,30.855,23.152,23.152,0,0,1,30.822,54" fill="#ff8200"/>
    <path id="Trazado_95" data-name="Trazado 95" d="M73.533,66.973c-.163,0-.294-.033-.424-.033H67.721c-.327,0-.457.1-.522.424-.2.816-.424,1.665-.686,2.645-.131-.294-.2-.457-.261-.62-1.371-4.277-2.743-8.522-4.081-12.8a.529.529,0,0,0-.62-.457q-1.714.049-3.428,0a.616.616,0,0,0-.686.49c-1.339,4.212-2.677,8.424-4.016,12.6a1.276,1.276,0,0,1-.327.62c-.1-.392-.229-.751-.327-1.143-1.077-4.016-2.122-8-3.167-12.015-.131-.49-.327-.588-.784-.588-1.665.033-3.33,0-5,0H43.2c.065.327.1.588.163.849,2.351,8.75,4.669,17.533,7.02,26.284a.6.6,0,0,0,.686.522q1.763-.049,3.526,0c.392,0,.522-.131.653-.49,1.437-4.538,2.873-9.11,4.343-13.648a2.919,2.919,0,0,1,.229-.588l.229.686c1.437,4.506,2.906,8.979,4.31,13.485a.666.666,0,0,0,.751.555q1.763-.049,3.526,0a.476.476,0,0,0,.555-.392c1.4-5.289,2.841-10.612,4.245-15.9l.1-.49" transform="translate(-29.095 -37.783)" fill="#afafaf"/>
    <path id="Trazado_96" data-name="Trazado 96" d="M128.906,56.133c-.163,0-.327-.033-.457-.033h-5.257c-.261,0-.457.033-.522.359-.457,1.8-.947,3.592-1.437,5.42a.636.636,0,0,0-.033.261c.2,0,.327.033.49.033h5.159c.327,0,.522-.065.62-.457.457-1.73.914-3.461,1.4-5.159a1.725,1.725,0,0,0,.033-.424" transform="translate(-81.627 -37.783)" fill="#fff"/>
    <path id="Trazado_97" data-name="Trazado 97" d="M788.574,53.534c3.69,6.138,7.314,12.244,11.069,18.48H798.5c-3.559,0-7.118-.033-10.677.033a1.537,1.537,0,0,1-1.535-.849c-2.775-4.669-5.583-9.305-8.359-13.942a1.294,1.294,0,0,0-1.339-.751c-1.731.033-3.494,0-5.322,0V71.981H760.3V45.534h1.045c5.844-.065,11.689-.131,17.534-.131,5.91,0,7.444-6.269,5.257-9.8a5.067,5.067,0,0,0-4.081-2.645c-1.7-.1-3.363-.2-5.061-.2-4.6-.033-9.208-.033-13.811-.033-.718,0-.979-.2-.979-.947.033-3.1.033-6.2,0-9.338,0-.457,0-.816.653-.784,6.334.033,12.636-.131,18.97.163a16.221,16.221,0,0,1,13.289,7.151,17.959,17.959,0,0,1-3.918,24.129,1.62,1.62,0,0,0-.62.424" transform="translate(-511.989 -14.581)" fill="#afafaf"/>
    <path id="Trazado_98" data-name="Trazado 98" d="M647.868,71.839h-1.012c-3.2,0-6.4-.033-9.6.033a1.332,1.332,0,0,1-1.469-1.012q-5.632-15.036-11.33-30.071c-.1-.261-.229-.522-.424-1.012-.229.522-.392.849-.522,1.208-3.787,9.991-7.608,19.982-11.362,29.973a1.171,1.171,0,0,1-1.339.914c-3.232-.033-6.465-.033-9.7-.033H600.1c.1-.327.131-.588.229-.816q9.207-24.292,18.448-48.65a1.271,1.271,0,0,1,1.469-.98c2.579.065,5.159.033,7.738,0a1.03,1.03,0,0,1,1.11.751q9.257,24.439,18.546,48.878a6.724,6.724,0,0,1,.229.816" transform="translate(-404.162 -14.407)" fill="#afafaf"/>
    <path id="Trazado_99" data-name="Trazado 99" d="M493.859,41.313c-.784-1.077-1.5-2.057-2.253-3.037a13.851,13.851,0,0,0-5.91-4.865c-5.551-2.057-13.354-.588-15.8,8-.229.751-.49,1.045-1.306,1.012-3.037-.065-6.04-.033-9.077-.033H458.4a24.97,24.97,0,0,1,3.526-10.154,20.251,20.251,0,0,1,11.591-9.305c12.44-3.755,22.137.816,28.994,11.689-2.873,2.22-5.747,4.441-8.652,6.693" transform="translate(-308.729 -14.572)" fill="#afafaf"/>
    <path id="Trazado_100" data-name="Trazado 100" d="M493.826,113.41c2.939,2.253,5.779,4.441,8.783,6.726-1.469,1.828-2.808,3.624-4.277,5.322-8.816,10.252-24.031,9.305-31.867,2.416a24.931,24.931,0,0,1-8.032-14.856,1.339,1.339,0,0,1-.033-.359,1.758,1.758,0,0,1,.033-.359H469.5c.424,1.077.784,2.22,1.241,3.3,3.461,7.575,13.093,8.261,17.991,3.82a45.665,45.665,0,0,0,4.212-4.8,9.671,9.671,0,0,0,.882-1.208" transform="translate(-308.729 -75.633)" fill="#afafaf"/>
    <path id="Trazado_101" data-name="Trazado 101" d="M359.305,21.565c-.327-.033-.588-.065-.816-.065h-9.6c-.49,0-.816.065-.979.653-.849,3.3-1.763,6.563-2.645,9.861-.033.131-.033.294-.065.49.327.033.62.065.914.065h9.436c.62,0,.947-.131,1.11-.816.816-3.134,1.7-6.269,2.514-9.436.065-.2.065-.457.131-.751" transform="translate(-232.489 -14.48)" fill="#afafaf"/>
    <path id="Trazado_102" data-name="Trazado 102" d="M30.822,0A30.822,30.822,0,1,0,61.645,30.822,30.837,30.837,0,0,0,30.822,0m0,54A23.149,23.149,0,1,1,53.972,30.855,23.152,23.152,0,0,1,30.822,54" fill="#afafaf"/>
    <path id="Trazado_103" data-name="Trazado 103" d="M73.533,66.973c-.163,0-.294-.033-.424-.033H67.721c-.327,0-.457.1-.522.424-.2.816-.424,1.665-.686,2.645-.131-.294-.2-.457-.261-.62-1.371-4.277-2.743-8.522-4.081-12.8a.529.529,0,0,0-.62-.457q-1.714.049-3.428,0a.616.616,0,0,0-.686.49c-1.339,4.212-2.677,8.424-4.016,12.6a1.276,1.276,0,0,1-.327.62c-.1-.392-.229-.751-.327-1.143-1.077-4.016-2.122-8-3.167-12.015-.131-.49-.327-.588-.784-.588-1.665.033-3.33,0-5,0H43.2c.065.327.1.588.163.849,2.351,8.75,4.669,17.533,7.02,26.284a.6.6,0,0,0,.686.522q1.763-.049,3.526,0c.392,0,.522-.131.653-.49,1.437-4.538,2.873-9.11,4.343-13.648a2.919,2.919,0,0,1,.229-.588l.229.686c1.437,4.506,2.906,8.979,4.31,13.485a.666.666,0,0,0,.751.555q1.763-.049,3.526,0a.476.476,0,0,0,.555-.392c1.4-5.289,2.841-10.612,4.245-15.9l.1-.49" transform="translate(-29.095 -37.783)" fill="#afafaf"/>
  </g>
</svg>
