<?xml version="1.0" encoding="utf-8"?>
<!-- Generator: Adobe Illustrator 16.0.0, SVG Export Plug-In . SVG Version: 6.00 Build 0)  -->
<!DOCTYPE svg PUBLIC "-//W3C//DTD SVG 1.1//EN" "http://www.w3.org/Graphics/SVG/1.1/DTD/svg11.dtd">
<svg version="1.1" id="Capa_1" xmlns="http://www.w3.org/2000/svg" xmlns:xlink="http://www.w3.org/1999/xlink" x="0px" y="0px"
	 width="312.5px" height="84.5px" viewBox="0 0 312.5 84.5" enable-background="new 0 0 312.5 84.5" xml:space="preserve">
<g>
	<g>
		<g>
			<defs>
				<rect id="SVGID_1_" width="304.458" height="65.231"/>
			</defs>
			<clipPath id="SVGID_2_">
				<use xlink:href="#SVGID_1_"  overflow="visible"/>
			</clipPath>
			<g id="Grupo_118" clip-path="url(#SVGID_2_)">
				<path id="Trazado_87" fill="#FFFFFF" d="M128.677,28.428c-0.275,0-0.549,0-0.824-0.137h-10.438
					c-0.549-0.137-0.961,0.274-0.961,0.687l0,0c-0.412,1.648-0.824,3.159-1.374,5.081c-0.275-0.549-0.412-0.961-0.549-1.236
					c-2.609-8.24-5.356-16.479-7.828-24.719c-0.275-0.687-0.549-0.824-1.236-0.824c-2.198,0-4.395,0-6.592,0
					c-0.549-0.137-1.236,0.275-1.236,0.824c0,0,0,0,0,0.138c-2.609,8.102-5.218,16.204-7.828,24.307
					c-0.137,0.412-0.275,0.824-0.687,1.236c-0.275-0.687-0.412-1.511-0.687-2.197c-2.06-7.69-4.12-15.381-6.18-23.208
					c-0.275-0.961-0.687-1.236-1.511-1.099c-3.159,0.138-6.455,0-9.613,0h-1.236c0.137,0.687,0.274,1.099,0.412,1.648
					c4.532,16.891,9.064,33.782,13.458,50.674c0,0.55,0.549,1.101,1.236,0.962h0.137c2.197-0.138,4.532-0.138,6.729,0
					c0.549,0.139,1.099-0.273,1.236-0.962l0,0c2.746-8.789,5.493-17.578,8.377-26.367c0.137-0.275,0.274-0.549,0.412-1.099
					c0.275,0.549,0.412,0.961,0.412,1.374c2.747,8.651,5.63,17.303,8.377,25.955c0.275,0.824,0.549,1.099,1.374,1.099
					c2.197-0.138,4.532,0,6.729,0c0.549,0,0.824-0.138,1.099-0.824l8.24-30.625C128.54,28.977,128.677,28.702,128.677,28.428"/>
				<path id="Trazado_88" fill="#FC8500" d="M292.785,41.199c3.846,6.455,7.69,12.909,11.673,19.501h-1.234
					c-3.708,0-7.555,0-11.263,0c-0.687,0.138-1.373-0.274-1.647-0.962c-2.883-4.942-5.904-9.888-8.788-14.693
					c-0.274-0.549-0.824-0.823-1.374-0.823c-1.785,0-3.707,0-5.63,0v16.342h-11.673V32.685h1.099
					c6.18-0.138,12.359-0.138,18.539-0.138c6.317,0,7.827-6.591,5.631-10.437c-0.824-1.648-2.472-2.609-4.258-2.747
					c-1.785-0.137-3.57-0.274-5.355-0.274c-4.807,0-9.751,0-14.557,0c-0.824,0-1.099-0.275-1.099-0.961c0-3.296,0-6.591,0-9.887
					c0-0.55,0-0.824,0.687-0.824c6.729,0,13.321-0.138,20.05,0.137c5.632,0,10.85,2.884,14.009,7.553
					c5.492,8.24,3.707,19.363-4.12,25.543C293.197,40.787,292.922,40.924,292.785,41.199"/>
				<path id="Trazado_89" fill="#FC8500" d="M257.903,60.701h-1.099c-3.434,0-6.729,0-10.162,0c-0.688,0.138-1.373-0.411-1.512-1.1
					c-3.981-10.574-7.965-21.286-11.946-31.86c-0.139-0.275-0.274-0.549-0.412-1.099c-0.274,0.549-0.412,0.961-0.549,1.236
					c-3.983,10.574-8.104,21.148-12.085,31.723c-0.139,0.688-0.824,1.1-1.374,0.962c-3.434,0-6.866,0-10.3,0h-1.1
					c0.138-0.412,0.138-0.687,0.275-0.824c6.454-17.166,13.046-34.332,19.5-51.498c0.138-0.687,0.823-1.099,1.511-1.099
					c2.747,0.137,5.493,0,8.24,0c0.549,0,1.099,0.275,1.234,0.824c6.593,17.303,13.046,34.469,19.64,51.772
					C257.766,60.151,257.903,60.425,257.903,60.701"/>
				<path id="Trazado_90" fill="#FFFFFF" d="M151.611,60.701h-11.536V7.554c0.274,0,0.549,0,0.824-0.137c3.296,0,6.592,0,9.75,0
					c0.824,0,0.962,0.274,0.962,0.961c0,17.166,0,34.333,0,51.361C151.611,60.151,151.611,60.425,151.611,60.701"/>
				<path id="Trazado_91" fill="#FC8500" d="M195.966,28.29c-0.822-1.099-1.646-2.197-2.334-3.159
					c-1.511-2.334-3.708-4.12-6.316-5.081c-5.904-2.197-14.146-0.687-16.754,8.514c-0.274,0.824-0.549,1.099-1.373,1.099
					c-3.159-0.137-6.455,0-9.613,0h-1.236c0.412-3.845,1.786-7.416,3.708-10.712c2.747-4.668,7.142-8.239,12.223-9.887
					c13.184-3.983,23.482,0.824,30.624,12.359C202.01,23.484,198.989,25.956,195.966,28.29"/>
				<path id="Trazado_92" fill="#FC8500" d="M195.831,39.963c3.158,2.334,6.181,4.669,9.338,7.141
					c-1.51,1.923-3.021,3.846-4.53,5.631c-9.34,10.85-25.406,9.889-33.783,2.609c-4.532-4.12-7.553-9.613-8.514-15.655
					c0-0.138,0-0.275,0-0.412c0-0.137,0-0.274,0-0.412h11.673c0.411,1.099,0.822,2.333,1.373,3.433
					c3.708,7.966,13.869,8.79,19.088,3.982c1.647-1.647,3.159-3.296,4.395-5.082C195.281,40.787,195.555,40.375,195.831,39.963"/>
				<path id="Trazado_93" fill="#FC8500" d="M134.17,7.416c-0.412,0-0.687-0.138-0.824-0.138h-10.162
					c-0.549,0-0.824,0.138-1.099,0.687c-0.961,3.433-1.923,7.004-2.747,10.437c0,0.137,0,0.274-0.137,0.549
					c0.412,0,0.687,0.138,0.961,0.138h10.025c0.687,0,0.961-0.138,1.236-0.824c0.824-3.295,1.785-6.591,2.609-10.024
					C134.17,8.103,134.17,7.828,134.17,7.416"/>
				<path id="Trazado_94" fill="#FF8200" d="M32.547,0C14.557,0,0,14.557,0,32.547s14.557,32.685,32.685,32.685
					c17.99,0,32.684-14.557,32.684-32.685C65.231,14.557,50.674,0,32.547,0 M32.547,57.129c-13.595,0-24.444-10.986-24.444-24.444
					c0-13.596,10.986-24.444,24.444-24.444s24.445,10.986,24.445,24.444l0,0C57.129,46.143,46.142,57.129,32.547,57.129"/>
				<path id="Trazado_95" fill="#AFAFAF" d="M46.966,30.9c-0.137,0-0.274,0-0.412,0h-5.768c-0.412,0-0.549,0.137-0.549,0.412
					c-0.274,0.824-0.412,1.786-0.687,2.747c-0.138-0.274-0.275-0.549-0.275-0.687c-1.51-4.532-2.884-9.064-4.257-13.596
					c0-0.274-0.275-0.549-0.687-0.549l0,0c-1.236,0-2.472,0-3.57,0c-0.275,0-0.687,0.137-0.687,0.549
					c-1.374,4.395-2.884,8.927-4.257,13.321c0,0.274-0.137,0.412-0.412,0.687c-0.137-0.412-0.274-0.824-0.412-1.236
					c-1.098-4.257-2.197-8.514-3.295-12.771c-0.138-0.549-0.412-0.687-0.824-0.687c-1.785,0-3.571,0-5.355,0h-0.687
					c0.137,0.412,0.137,0.687,0.137,0.961c2.472,9.201,4.944,18.54,7.416,27.877c0,0.412,0.412,0.55,0.687,0.55l0,0
					c1.236,0,2.472,0,3.708,0c0.412,0,0.549-0.138,0.687-0.55c1.511-4.807,3.021-9.613,4.532-14.419
					c0-0.275,0.137-0.412,0.274-0.687l0.274,0.687c1.511,4.806,3.021,9.476,4.532,14.281c0,0.411,0.412,0.688,0.824,0.55
					c1.236,0,2.472,0,3.708,0c0.274,0,0.549-0.139,0.549-0.412l0,0c1.511-5.631,3.021-11.261,4.532-16.891L46.966,30.9"/>
				<path id="Trazado_96" fill="#FFFFFF" d="M49.988,19.364c-0.137,0-0.412,0-0.549,0h-5.493c-0.274,0-0.549,0-0.549,0.412
					c-0.549,1.923-0.961,3.845-1.511,5.768c0,0.137,0,0.137,0,0.274c0.274,0,0.412,0,0.549,0h5.493c0.412,0,0.549-0.137,0.687-0.549
					c0.549-1.785,0.961-3.708,1.51-5.493C49.988,19.639,49.988,19.501,49.988,19.364"/>
				<path id="Trazado_97" fill="#FB7304" d="M292.785,41.199c3.846,6.455,7.69,12.909,11.673,19.501h-1.234
					c-3.708,0-7.555,0-11.263,0c-0.687,0.138-1.373-0.274-1.647-0.962c-2.883-4.942-5.904-9.888-8.788-14.693
					c-0.274-0.549-0.824-0.823-1.374-0.823c-1.785,0-3.707,0-5.63,0v16.342h-11.673V32.685h1.099
					c6.18-0.138,12.359-0.138,18.539-0.138c6.317,0,7.827-6.591,5.631-10.437c-0.824-1.648-2.472-2.609-4.258-2.747
					c-1.785-0.137-3.57-0.274-5.355-0.274c-4.807,0-9.751,0-14.557,0c-0.824,0-1.099-0.275-1.099-0.961c0-3.296,0-6.591,0-9.887
					c0-0.55,0-0.824,0.687-0.824c6.729,0,13.321-0.138,20.05,0.137c5.632,0,10.85,2.884,14.009,7.553
					c5.492,8.24,3.707,19.363-4.12,25.543C293.197,40.787,292.922,40.924,292.785,41.199"/>
				<path id="Trazado_98" fill="#FB7304" d="M257.903,60.701h-1.099c-3.434,0-6.729,0-10.162,0c-0.688,0.138-1.373-0.411-1.512-1.1
					c-3.981-10.574-7.965-21.286-11.946-31.86c-0.139-0.275-0.274-0.549-0.412-1.099c-0.274,0.549-0.412,0.961-0.549,1.236
					c-3.983,10.574-8.104,21.148-12.085,31.723c-0.139,0.688-0.824,1.1-1.374,0.962c-3.434,0-6.866,0-10.3,0h-1.1
					c0.138-0.412,0.138-0.687,0.275-0.824c6.454-17.166,13.046-34.332,19.5-51.498c0.138-0.687,0.823-1.099,1.511-1.099
					c2.747,0.137,5.493,0,8.24,0c0.549,0,1.099,0.275,1.234,0.824c6.593,17.303,13.046,34.469,19.64,51.772
					C257.766,60.151,257.903,60.425,257.903,60.701"/>
				<path id="Trazado_99" fill="#FB7304" d="M195.966,28.29c-0.822-1.099-1.646-2.197-2.334-3.159
					c-1.511-2.334-3.708-4.12-6.316-5.081c-5.904-2.197-14.146-0.687-16.754,8.514c-0.274,0.824-0.549,1.099-1.373,1.099
					c-3.159-0.137-6.455,0-9.613,0h-1.236c0.412-3.845,1.786-7.416,3.708-10.712c2.747-4.668,7.142-8.239,12.223-9.887
					c13.184-3.983,23.482,0.824,30.624,12.359C202.01,23.484,198.989,25.956,195.966,28.29"/>
				<path id="Trazado_100" fill="#FB7304" d="M195.831,39.963c3.158,2.334,6.181,4.669,9.338,7.141
					c-1.51,1.923-3.021,3.846-4.53,5.631c-9.34,10.85-25.406,9.889-33.783,2.609c-4.532-4.12-7.553-9.613-8.514-15.655
					c0-0.138,0-0.275,0-0.412c0-0.137,0-0.274,0-0.412h11.673c0.411,1.099,0.822,2.333,1.373,3.433
					c3.708,7.966,13.869,8.79,19.088,3.982c1.647-1.647,3.159-3.296,4.395-5.082C195.281,40.787,195.555,40.375,195.831,39.963"/>
				<path id="Trazado_101" fill="#FB7304" d="M134.17,7.416c-0.412,0-0.687-0.138-0.824-0.138h-10.162
					c-0.549,0-0.824,0.138-1.099,0.687c-0.961,3.433-1.923,7.004-2.747,10.437c0,0.137,0,0.274-0.137,0.549
					c0.412,0,0.687,0.138,0.961,0.138h10.025c0.687,0,0.961-0.138,1.236-0.824c0.824-3.295,1.785-6.591,2.609-10.024
					C134.17,8.103,134.17,7.828,134.17,7.416"/>
				<path id="Trazado_102" fill="#FB7304" d="M32.547,0C14.557,0,0,14.557,0,32.547s14.557,32.685,32.685,32.685
					c17.99,0,32.684-14.557,32.684-32.685C65.231,14.557,50.674,0,32.547,0 M32.547,57.129c-13.595,0-24.444-10.986-24.444-24.444
					c0-13.596,10.986-24.444,24.444-24.444s24.445,10.986,24.445,24.444l0,0C57.129,46.143,46.142,57.129,32.547,57.129"/>
				<path id="Trazado_103" fill="#FB7304" d="M46.966,30.9c-0.137,0-0.274,0-0.412,0h-5.768c-0.412,0-0.549,0.137-0.549,0.412
					c-0.274,0.824-0.412,1.786-0.687,2.747c-0.138-0.274-0.275-0.549-0.275-0.687c-1.51-4.532-2.884-9.064-4.257-13.596
					c0-0.274-0.275-0.549-0.687-0.549l0,0c-1.236,0-2.472,0-3.57,0c-0.275,0-0.687,0.137-0.687,0.549
					c-1.374,4.395-2.884,8.927-4.257,13.321c0,0.274-0.137,0.412-0.412,0.687c-0.137-0.412-0.274-0.824-0.412-1.236
					c-1.098-4.257-2.197-8.514-3.295-12.771c-0.138-0.549-0.412-0.687-0.824-0.687c-1.785,0-3.571,0-5.355,0h-0.687
					c0.137,0.412,0.137,0.687,0.137,0.961c2.472,9.201,4.944,18.54,7.416,27.877c0,0.412,0.412,0.55,0.687,0.55l0,0
					c1.236,0,2.472,0,3.708,0c0.412,0,0.549-0.138,0.687-0.55c1.511-4.807,3.021-9.613,4.532-14.419
					c0-0.275,0.137-0.412,0.274-0.687l0.274,0.687c1.511,4.806,3.021,9.476,4.532,14.281c0,0.411,0.412,0.688,0.824,0.55
					c1.236,0,2.472,0,3.708,0c0.274,0,0.549-0.139,0.549-0.412l0,0c1.511-5.631,3.021-11.261,4.532-16.891L46.966,30.9"/>
			</g>
		</g>
	</g>
</g>
<text transform="matrix(1.3727 0 0 1 189.4653 77.2075)" fill="#FB7304" font-family="'Calibri'" font-size="21.7387">Empresas</text>
</svg>
