<svg xmlns="http://www.w3.org/2000/svg" xmlns:xlink="http://www.w3.org/1999/xlink" width="225.859" height="48.402" viewBox="0 0 225.859 48.402">
  <defs>
    <linearGradient id="linear-gradient" x1="0.499" y1="1" x2="0.499" y2="-0.001" gradientUnits="objectBoundingBox">
      <stop offset="0" stop-color="#ff8200"/>
      <stop offset="1" stop-color="#fb5f00"/>
    </linearGradient>
    <linearGradient id="linear-gradient-2" x1="0.5" y1="1" x2="0.5" y2="0" xlink:href="#linear-gradient"/>
    <linearGradient id="linear-gradient-3" x1="0.5" y1="1" x2="0.5" y2="0.001" xlink:href="#linear-gradient"/>
    <linearGradient id="linear-gradient-4" x1="0.5" y1="0.999" x2="0.5" y2="0" xlink:href="#linear-gradient"/>
    <linearGradient id="linear-gradient-5" x1="0.5" y1="1" x2="0.5" y2="0" xlink:href="#linear-gradient"/>
    <linearGradient id="linear-gradient-6" x1="0.5" y1="1" x2="0.5" y2="-0.001" xlink:href="#linear-gradient"/>
  </defs>
  <g id="wicar" transform="translate(-350.9 -257.6)">
    <path id="Trazado_1" data-name="Trazado 1" d="M597.477,294.655a5.513,5.513,0,0,0-.59-.051H589.2a.661.661,0,0,0-.769.59c-.282,1.179-.615,2.359-1,3.769-.179-.436-.282-.667-.359-.9-1.948-6.1-3.922-12.2-5.845-18.33-.154-.513-.385-.641-.9-.641-1.641.026-3.256.026-4.9,0a.813.813,0,0,0-.974.692c-1.9,6.025-3.845,12.049-5.768,18.074a2.307,2.307,0,0,1-.461.9c-.154-.538-.308-1.1-.461-1.641-1.513-5.717-3.051-11.46-4.538-17.177-.179-.692-.461-.872-1.128-.846-2.384.051-4.743.026-7.127.026H554.1c.1.461.154.82.256,1.2q5.038,18.8,10.024,37.635a.828.828,0,0,0,1,.743c1.666-.051,3.358-.051,5.025,0a.812.812,0,0,0,.923-.692q3.076-9.768,6.2-19.535c.077-.205.154-.436.308-.846.154.436.256.692.333.974q3.115,9.652,6.2,19.3c.179.564.41.82,1.051.795,1.666-.051,3.358-.026,5.025,0,.436,0,.641-.077.769-.564l6.076-22.765A3.268,3.268,0,0,0,597.477,294.655Z" transform="translate(-151.106 -15.981)" fill="#fff"/>
    <path id="Trazado_2" data-name="Trazado 2" d="M1133.378,304.284c2.9,4.82,5.743,9.614,8.691,14.51h-.9c-2.794,0-5.589-.026-8.383.026a1.207,1.207,0,0,1-1.2-.667c-2.179-3.666-4.384-7.306-6.563-10.947a1.016,1.016,0,0,0-1.051-.59c-1.359.026-2.743,0-4.179,0v12.152h-8.614V298h.82c4.589-.051,9.178-.1,13.767-.1,4.64,0,5.845-4.922,4.127-7.691a3.978,3.978,0,0,0-3.2-2.077c-1.333-.077-2.641-.154-3.974-.154-3.615-.026-7.23-.026-10.844-.026-.564,0-.769-.154-.769-.743.026-2.436.026-4.871,0-7.332,0-.359,0-.641.513-.615,4.973.026,9.921-.1,14.9.128a12.736,12.736,0,0,1,10.434,5.614,14.1,14.1,0,0,1-3.076,18.945A1.272,1.272,0,0,0,1133.378,304.284Z" transform="translate(-565.31 -16.1)" fill="#fc8500"/>
    <path id="Trazado_3" data-name="Trazado 3" d="M988.507,318.6h-.795c-2.512,0-5.025-.026-7.537.026a1.045,1.045,0,0,1-1.154-.795q-4.422-11.806-8.9-23.611c-.077-.205-.179-.41-.333-.795-.179.41-.308.667-.41.949-2.974,7.845-5.973,15.69-8.922,23.535a.919.919,0,0,1-1.051.718c-2.538-.026-5.076-.026-7.614-.026H951c.077-.256.1-.461.179-.641q7.23-19.074,14.485-38.2a1,1,0,0,1,1.154-.769c2.025.051,4.051.026,6.076,0a.809.809,0,0,1,.872.59q7.268,19.189,14.562,38.378A5.283,5.283,0,0,1,988.507,318.6Z" transform="translate(-446.254 -15.907)" fill="#fc8500"/>
    <path id="Trazado_4" data-name="Trazado 4" d="M764.763,318.657H756.2v-39.48a5.4,5.4,0,0,1,.641-.051c2.436,0,4.845.026,7.281-.026.564,0,.692.179.692.718-.026,12.716,0,25.432,0,38.147A5.113,5.113,0,0,0,764.763,318.657Z" transform="translate(-301.394 -15.988)" fill="#fff"/>
    <path id="Trazado_5" data-name="Trazado 5" d="M837.142,294.686c-.615-.846-1.179-1.615-1.769-2.384a10.876,10.876,0,0,0-4.64-3.82c-4.358-1.615-10.485-.461-12.408,6.281-.179.59-.385.82-1.025.795-2.384-.051-4.743-.026-7.127-.026H809.3a19.6,19.6,0,0,1,2.769-7.973,15.9,15.9,0,0,1,9.1-7.307c9.768-2.948,17.382.641,22.765,9.178C841.679,291.174,839.423,292.917,837.142,294.686Z" transform="translate(-340.881 -16.089)" fill="#fc8500"/>
    <path id="Trazado_6" data-name="Trazado 6" d="M837.116,370.772c2.307,1.769,4.538,3.487,6.9,5.281-1.154,1.436-2.2,2.846-3.358,4.179-6.922,8.05-18.869,7.306-25.021,1.9a19.574,19.574,0,0,1-6.307-11.665,1.052,1.052,0,0,1-.026-.282,1.381,1.381,0,0,1,.026-.282h8.691c.333.846.615,1.743.974,2.589,2.717,5.948,10.28,6.486,14.126,3a35.854,35.854,0,0,0,3.307-3.769A7.6,7.6,0,0,0,837.116,370.772Z" transform="translate(-340.881 -83.51)" fill="#fc8500"/>
    <path id="Trazado_7" data-name="Trazado 7" d="M707.175,279.151c-.256-.026-.461-.051-.641-.051H699c-.385,0-.641.051-.769.513-.667,2.589-1.384,5.153-2.077,7.742-.026.1-.026.231-.051.385.256.026.487.051.718.051h7.409c.487,0,.743-.1.872-.641.641-2.461,1.333-4.922,1.974-7.409C707.124,279.587,707.124,279.382,707.175,279.151Z" transform="translate(-256.702 -15.988)" fill="#fc8500"/>
    <g id="Grupo_1" data-name="Grupo 1" transform="translate(350.9 257.6)">
      <path id="Trazado_8" data-name="Trazado 8" d="M375.1,257.6a24.2,24.2,0,1,0,24.2,24.2A24.213,24.213,0,0,0,375.1,257.6Zm0,42.4a18.176,18.176,0,1,1,18.176-18.176A18.179,18.179,0,0,1,375.1,300Z" transform="translate(-350.9 -257.6)" fill="#ff8200"/>
    </g>
    <g id="Grupo_2" data-name="Grupo 2" transform="translate(361.975 271.982)">
      <path id="Trazado_9" data-name="Trazado 9" d="M417.917,322.237c-.128,0-.231-.026-.333-.026h-4.23c-.256,0-.359.077-.41.333-.154.641-.333,1.307-.538,2.077-.1-.231-.154-.359-.205-.487-1.077-3.358-2.153-6.691-3.2-10.05a.415.415,0,0,0-.487-.359q-1.346.038-2.692,0a.484.484,0,0,0-.538.385c-1.051,3.307-2.1,6.614-3.153,9.9a1,1,0,0,1-.256.487c-.077-.308-.179-.59-.256-.9-.846-3.153-1.666-6.281-2.487-9.434-.1-.385-.256-.461-.615-.461-1.307.026-2.615,0-3.922,0H394.1c.051.256.077.461.128.667,1.846,6.871,3.666,13.767,5.512,20.638a.469.469,0,0,0,.538.41q1.384-.038,2.769,0c.308,0,.41-.1.513-.385,1.128-3.563,2.256-7.153,3.41-10.716a2.289,2.289,0,0,1,.179-.461l.179.538c1.128,3.538,2.282,7.05,3.384,10.588a.523.523,0,0,0,.59.436q1.384-.038,2.769,0a.374.374,0,0,0,.436-.308c1.1-4.153,2.23-8.332,3.333-12.485Z" transform="translate(-394.1 -313.7)" fill="#ff8200"/>
      <path id="Trazado_10" data-name="Trazado 10" d="M478.15,313.726c-.128,0-.256-.026-.359-.026h-4.128c-.205,0-.359.026-.41.282-.359,1.41-.743,2.82-1.128,4.256a.5.5,0,0,0-.026.205c.154,0,.256.026.385.026h4.051c.256,0,.41-.051.487-.359.359-1.359.718-2.717,1.1-4.051A1.354,1.354,0,0,0,478.15,313.726Z" transform="translate(-452.103 -313.7)" fill="#fff"/>
    </g>
    <path id="Trazado_11" data-name="Trazado 11" d="M1133.378,304.284c2.9,4.82,5.743,9.614,8.691,14.51h-.9c-2.794,0-5.589-.026-8.383.026a1.207,1.207,0,0,1-1.2-.667c-2.179-3.666-4.384-7.306-6.563-10.947a1.016,1.016,0,0,0-1.051-.59c-1.359.026-2.743,0-4.179,0v12.152h-8.614V298h.82c4.589-.051,9.178-.1,13.767-.1,4.64,0,5.845-4.922,4.127-7.691a3.978,3.978,0,0,0-3.2-2.077c-1.333-.077-2.641-.154-3.974-.154-3.615-.026-7.23-.026-10.844-.026-.564,0-.769-.154-.769-.743.026-2.436.026-4.871,0-7.332,0-.359,0-.641.513-.615,4.973.026,9.921-.1,14.9.128a12.736,12.736,0,0,1,10.434,5.614,14.1,14.1,0,0,1-3.076,18.945A1.272,1.272,0,0,0,1133.378,304.284Z" transform="translate(-565.31 -16.1)" fill="url(#linear-gradient)"/>
    <path id="Trazado_12" data-name="Trazado 12" d="M988.507,318.6h-.795c-2.512,0-5.025-.026-7.537.026a1.045,1.045,0,0,1-1.154-.795q-4.422-11.806-8.9-23.611c-.077-.205-.179-.41-.333-.795-.179.41-.308.667-.41.949-2.974,7.845-5.973,15.69-8.922,23.535a.919.919,0,0,1-1.051.718c-2.538-.026-5.076-.026-7.614-.026H951c.077-.256.1-.461.179-.641q7.23-19.074,14.485-38.2a1,1,0,0,1,1.154-.769c2.025.051,4.051.026,6.076,0a.809.809,0,0,1,.872.59q7.268,19.189,14.562,38.378A5.283,5.283,0,0,1,988.507,318.6Z" transform="translate(-446.254 -15.907)" fill="url(#linear-gradient-2)"/>
    <path id="Trazado_13" data-name="Trazado 13" d="M837.142,294.686c-.615-.846-1.179-1.615-1.769-2.384a10.876,10.876,0,0,0-4.64-3.82c-4.358-1.615-10.485-.461-12.408,6.281-.179.59-.385.82-1.025.795-2.384-.051-4.743-.026-7.127-.026H809.3a19.6,19.6,0,0,1,2.769-7.973,15.9,15.9,0,0,1,9.1-7.307c9.768-2.948,17.382.641,22.765,9.178C841.679,291.174,839.423,292.917,837.142,294.686Z" transform="translate(-340.881 -16.089)" fill="url(#linear-gradient-3)"/>
    <path id="Trazado_14" data-name="Trazado 14" d="M837.116,370.772c2.307,1.769,4.538,3.487,6.9,5.281-1.154,1.436-2.2,2.846-3.358,4.179-6.922,8.05-18.869,7.306-25.021,1.9a19.574,19.574,0,0,1-6.307-11.665,1.052,1.052,0,0,1-.026-.282,1.381,1.381,0,0,1,.026-.282h8.691c.333.846.615,1.743.974,2.589,2.717,5.948,10.28,6.486,14.126,3a35.854,35.854,0,0,0,3.307-3.769A7.6,7.6,0,0,0,837.116,370.772Z" transform="translate(-340.881 -83.51)" fill="#fc8500"/>
    <path id="Trazado_15" data-name="Trazado 15" d="M707.175,279.151c-.256-.026-.461-.051-.641-.051H699c-.385,0-.641.051-.769.513-.667,2.589-1.384,5.153-2.077,7.742-.026.1-.026.231-.051.385.256.026.487.051.718.051h7.409c.487,0,.743-.1.872-.641.641-2.461,1.333-4.922,1.974-7.409C707.124,279.587,707.124,279.382,707.175,279.151Z" transform="translate(-256.702 -15.988)" fill="url(#linear-gradient-4)"/>
    <g id="Grupo_3" data-name="Grupo 3" transform="translate(350.9 257.6)">
      <path id="Trazado_16" data-name="Trazado 16" d="M375.1,257.6a24.2,24.2,0,1,0,24.2,24.2A24.213,24.213,0,0,0,375.1,257.6Zm0,42.4a18.176,18.176,0,1,1,18.176-18.176A18.179,18.179,0,0,1,375.1,300Z" transform="translate(-350.9 -257.6)" fill="url(#linear-gradient-5)"/>
    </g>
    <path id="Trazado_17" data-name="Trazado 17" d="M417.917,322.237c-.128,0-.231-.026-.333-.026h-4.23c-.256,0-.359.077-.41.333-.154.641-.333,1.307-.538,2.077-.1-.231-.154-.359-.205-.487-1.077-3.358-2.153-6.691-3.2-10.05a.415.415,0,0,0-.487-.359q-1.346.038-2.692,0a.484.484,0,0,0-.538.385c-1.051,3.307-2.1,6.614-3.153,9.9a1,1,0,0,1-.256.487c-.077-.308-.179-.59-.256-.9-.846-3.153-1.666-6.281-2.487-9.434-.1-.385-.256-.461-.615-.461-1.307.026-2.615,0-3.922,0H394.1c.051.256.077.461.128.667,1.846,6.871,3.666,13.767,5.512,20.638a.469.469,0,0,0,.538.41q1.384-.038,2.769,0c.308,0,.41-.1.513-.385,1.128-3.563,2.256-7.153,3.41-10.716a2.289,2.289,0,0,1,.179-.461l.179.538c1.128,3.538,2.282,7.05,3.384,10.588a.523.523,0,0,0,.59.436q1.384-.038,2.769,0a.374.374,0,0,0,.436-.308c1.1-4.153,2.23-8.332,3.333-12.485Z" transform="translate(-32.125 -41.718)" fill="url(#linear-gradient-6)"/>
  </g>
</svg>
